<?xml version="1.0"?>
<svg xmlns="http://www.w3.org/2000/svg" height="512px" viewBox="0 -24 512.002 512" width="512px" class=""><g><path d="m176 392h16v15.050781h-16zm0 0" data-original="#000000" class="active-path" data-old_color="#000000" fill="#FF7F8A"/><path d="m312 392h16v15.050781h-16zm0 0" data-original="#000000" class="active-path" data-old_color="#000000" fill="#FF7F8A"/><path d="m143.523438 143.527344h-15.046876v-31.527344h55.523438v15.050781h-40.476562zm0 0" data-original="#000000" class="active-path" data-old_color="#000000" fill="#FF7F8A"/><path d="m368 128h16v15.050781h-16zm0 0" data-original="#000000" class="active-path" data-old_color="#000000" fill="#FF7F8A"/><path d="m497.777344 448-33.421875-16.710938-5.441407 2.15625c-16.585937-39.402343-76.5625-69.777343-155.390624-78.695312v-179.699219h112v-95.050781h-63.523438v15.050781h48.472656v64.949219h-111.996094v193.273438c-10.386718-.839844-21.269531-1.273438-32.476562-1.273438-11.21875 0-22.113281.433594-32.472656 1.273438v-97.75h-15.050782v99.226562c-79.4375 9-139.6875 39.761719-155.703124 79.578125l-22.851563 13.671875h-29.921875v15.050781h34.078125l28.691406-17.164062 10.3125-6.226563 54.328125 15.523438 64.523438-8.066406 54.617187 7.800781 33.984375 8.496093 41.617188-16.648437 37.132812-7.425781 37.921875 15.171875 27.023438 9.019531 33.277343-13.257812 4.261719-1.769532 1.878907-.746094 30.578124 15.292969h17.777344v-15.050781zm-74.007813-.480469-21.179687-7.0625-41.871094-16.75-42.871094 8.574219-38.382812 15.355469-29.640625-7.410157-57.757813-8.292968-63.476562 7.933594-52.667969-15.046876c8.851563-10.734374 22.285156-20.6875 39.777344-29.351562 27.421875-13.578125 62.355469-22.726562 101.089843-26.457031 12.308594-1.300781 25.5-1.960938 39.210938-1.960938s26.902344.660157 39.277344 1.964844c38.683594 3.726563 73.632812 12.878906 101.0625 26.464844 25.003906 12.382812 41.726562 27.398437 48.613281 43.589843zm0 0" data-original="#000000" class="active-path" data-old_color="#000000" fill="#FF7F8A"/><path d="m128 408h16v15.050781h-16zm0 0" data-original="#000000" class="active-path" data-old_color="#000000" fill="#FF7F8A"/><path d="m144 392h16v15.050781h-16zm0 0" data-original="#000000" class="active-path" data-old_color="#000000" fill="#FF7F8A"/><path d="m392 408h16v15.050781h-16zm0 0" data-original="#000000" class="active-path" data-old_color="#000000" fill="#FF7F8A"/><path d="m240 384h16v15.050781h-16zm0 0" data-original="#000000" class="active-path" data-old_color="#000000" fill="#FF7F8A"/><path d="m256 400h16v15.050781h-16zm0 0" data-original="#000000" class="active-path" data-old_color="#000000" fill="#FF7F8A"/><path d="m208.476562 231.523438h15.050782v-71.523438h-112.003906v-64.949219h112.003906v-80h64.949218v80h47.523438v-15.050781h-32.472656v-80h-95.050782v80h-112.003906v95.050781h112.003906zm0 0" data-original="#000000" class="active-path" data-old_color="#000000" fill="#FF7F8A"/><path d="m200 112h16v15.050781h-16zm0 0" data-original="#000000" class="active-path" data-old_color="#000000" fill="#FF7F8A"/><path d="m336 128h16v15.050781h-16zm0 0" data-original="#000000" class="active-path" data-old_color="#000000" fill="#FF7F8A"/></g> </svg>
