<?xml version="1.0"?>
<svg xmlns="http://www.w3.org/2000/svg" height="512px" viewBox="0 0 64 64" width="512px" class=""><g><g id="facemask-virus-covid19-corona-mask"><path d="m55.578 25.88-17.458-17.458a2 2 0 0 0 -2.539-.24l-8.433 5.735a49.976 49.976 0 0 0 -13.231 13.231l-5.735 8.433a2 2 0 0 0 .24 2.539l17.458 17.458a2 2 0 0 0 2.539.24l8.433-5.735a49.976 49.976 0 0 0 13.231-13.231l5.735-8.433a2 2 0 0 0 -.24-2.539z" fill="#57a4ff" data-original="#57A4FF" class="" style="fill:#FFBF00" data-old_color="#57a4ff"/><path d="m55.578 25.88-17.458-17.458a2 2 0 0 0 -2.539-.24l-.417.284.974.973c11.049 11.049 10.749 29.249-.964 39.593a13.624 13.624 0 0 1 -1.322 1.051l-8.016 5.451.044.044a2 2 0 0 0 2.539.24l8.433-5.735a49.976 49.976 0 0 0 13.231-13.231l5.735-8.433a2 2 0 0 0 -.24-2.539z" fill="#2488ff" data-original="#2488FF" class="active-path" style="fill:#FFBF00" data-old_color="#2488ff"/><path d="m57.456 5.13a8 8 0 0 0 -11.314 0l-5.657 5.657 2.122 2.121 5.656-5.657a5.008 5.008 0 0 1 7.072 0l1.414 1.414a5.008 5.008 0 0 1 0 7.072l-5.657 5.656 2.121 2.122 5.657-5.657a8 8 0 0 0 0-11.314z" fill="#9bc9ff" data-original="#9BC9FF" class="" style="fill:#FFBF00" data-old_color="#9bc9ff"/><path d="m8.665 56.749-1.414-1.414a5.008 5.008 0 0 1 0-7.072l5.657-5.656-2.121-2.122-5.657 5.657a8 8 0 0 0 0 11.314l1.414 1.414a8 8 0 0 0 11.314 0l5.657-5.657-2.122-2.121-5.656 5.657a5.008 5.008 0 0 1 -7.072 0z" fill="#9bc9ff" data-original="#9BC9FF" class="" style="fill:#FFBF00" data-old_color="#9bc9ff"/><g fill="#f1f2f2"><path d="m45.435 22.808a1 1 0 0 0 -1.414 0l-21.213 21.213a1 1 0 1 0 1.414 1.414l21.213-21.213a1 1 0 0 0 0-1.414z" data-original="#F1F2F2" class=""/><path d="m41.192 18.565a1 1 0 0 0 -1.414 0l-21.213 21.213a1 1 0 1 0 1.414 1.414l21.213-21.213a1 1 0 0 0 0-1.414z" data-original="#F1F2F2" class=""/><path d="m36.949 14.322a1 1 0 0 0 -1.414 0l-21.213 21.214a1 1 0 1 0 1.414 1.414l21.213-21.214a1 1 0 0 0 0-1.414z" data-original="#F1F2F2" class=""/><path d="m27.051 48.264a1 1 0 1 0 1.414 1.414l21.213-21.214a1 1 0 1 0 -1.414-1.414z" data-original="#F1F2F2" class=""/></g></g></g> </svg>
