<svg width="477.88" height="477.88" xmlns="http://www.w3.org/2000/svg">

 <g>
  <title>background</title>
  <rect fill="none" id="canvas_background" height="402" width="582" y="-1" x="-1"/>
 </g>
 <g>
  <title>Layer 1</title>
  <g id="svg_1">
   <g id="svg_2">
    <g id="svg_3">
     <path id="svg_4" fill="#5F7D95" class="active-path" d="m460.809,0l-187.733,0c-4.526,0.001 -8.866,1.8 -12.066,5.001l-256,256c-6.669,6.661 -6.675,17.467 -0.013,24.136c0.004,0.004 0.009,0.009 0.013,0.013l187.733,187.733c6.665,6.662 17.468,6.662 24.132,0l256,-256c3.205,-3.204 5.004,-7.551 5.001,-12.083l0,-187.733c0,-9.426 -7.641,-17.067 -17.067,-17.067zm-102.4,153.6c-18.851,0 -34.133,-15.282 -34.133,-34.133s15.282,-34.133 34.133,-34.133s34.133,15.282 34.133,34.133s-15.282,34.133 -34.133,34.133z"/>
    </g>
   </g>
  </g>
  <line stroke-linecap="undefined" stroke-linejoin="undefined" id="svg_7" y2="469.377502" x2="393.440002" y1="16.377502" x1="139.440002" stroke-width="25" stroke="#90a3b2" fill="none"/>
 </g>
</svg>